<svg id="Layer_1" data-name="Layer 1" xmlns="http://www.w3.org/2000/svg" viewBox="0 0 370.4 370.4"><defs><style>.cls-1{fill:#fff;}</style></defs><title>cb_crop</title><path class="cls-1" d="M323.1,208.9l-42.9-54.1c-.1-.1-.2-.3-.4-.4L216.2,73.9a5.54,5.54,0,0,0-7.1-1.3,44.35,44.35,0,0,1-43.9.1,5.54,5.54,0,0,0-7,1.4l-63,79.4a.1.1,0,0,1-.1.1l-44,55.5a5.54,5.54,0,0,0-.7,5.8c22,47.3,76.8,95.3,138.8,95.3h.3c27.9-1.4,56.2-12.5,81.9-32.1,22.6-17.2,41.6-40.3,52.4-63.4A5.73,5.73,0,0,0,323.1,208.9ZM164,84.4a55.46,55.46,0,0,0,46.3-.1l56.2,71-10.3,3.3c-.1,0-.1,0-.2.1h-.1l-1.7.5c-.1,0-.1,0-.2.1h-.1c-1.4.5-2.4.9-3.1,1.1a7.6,7.6,0,0,1-1.1.4c-.5.2-.7.3-.9.4s-.3.1-.4.2c-7.8,4.5-7,9.7-5,13.3a31.5,31.5,0,0,0,4,5.4c2.9,3.4,4.6,5.6,4.1,8.6a10.07,10.07,0,0,1-6,7.3,10,10,0,0,1-9.5-1c-2.4-1.7-2.7-4.6-3.1-9a32.55,32.55,0,0,0-.9-6.7c-1.1-4-4.2-8.3-13-6l-1,.3h0a36.35,36.35,0,0,0-5.5,1.7c-1.6.6-3.3,1.2-5.1,1.9-.1,0-5.6,2.4-22,12.5-.9-.4-1.8-.8-2.8-1.3a29.17,29.17,0,0,0-3.1-1.4,41.22,41.22,0,0,1-4.7-2.2c-1.5-.8-3-1.5-4.2-2.2h0a2.09,2.09,0,0,1-.6-.4h0c.5-.7,1.2-1.4,1.8-2.1,3.2-3.7,8.1-9.3,6.8-17.5A21.07,21.07,0,0,0,146,148.8c-6.8,4.7-7.5,12.2-7.9,17.1l-.3,2.7a91.87,91.87,0,0,1-17.7-6.8l-12.3-6.6Zm.3,107.5c1.7,1,3.5,2,5.6,3s4.3,2.1,6.7,3.1l2.3,1c.4.2.8.4,1.3.6l-.3,3.7c-.5,6.9-.9,16.9.2,24.9,1.3,9,6.4,10.3,10.5,9.8a42.78,42.78,0,0,0,6.4-1.6c4.2-1.4,7-2.2,9.5-.6a10.09,10.09,0,0,1,0,16.8c-2.5,1.6-5.2.8-9.5-.5a37.29,37.29,0,0,0-6.6-1.7c-7.4-.8-9.7,4.9-10.4,9.8a87.3,87.3,0,0,0-.7,12.2c0,.7.8,10.3,3.3,26.6-30.7-1.8-55.9-16-72-28.1C90,255.5,72.3,234.6,61.7,213.2l39-49.2,13.2,7.1c.2.1.3.1.5.2l.5.3c.1,0,.1.1.2.1a93.48,93.48,0,0,0,22.1,8.2.6.6,0,0,1,.4.1h.1c3,.4,8.3,0,10.1-6.4a39.09,39.09,0,0,0,1-6.6c.4-4.5.7-7.3,3.2-9a9.82,9.82,0,0,1,9.4-.9,10,10,0,0,1,6,7.5c.5,3-1.3,5.2-4.2,8.5a37.2,37.2,0,0,0-4.1,5.3c-1.7,3.6-2.5,8.8,5.2,13.5m100.4,77.4c-15.8,12.1-40.6,26.7-70.9,29.5-2.6-15.9-3.3-25.3-3.4-26.6a78.35,78.35,0,0,1,.6-10.5v-.1c.9.2,1.8.6,2.7.8,4.7,1.5,11.7,3.8,18.7-.6a21,21,0,0,0,9.6-17.7V244a21.31,21.31,0,0,0-9.6-17.6c-7-4.4-14.1-2.1-18.8-.6-.9.3-1.8.6-2.6.8v-.1c-1-7-.6-16.2-.1-22.5l.4-4.9c15-9.2,21.2-11.8,21.9-12.1l1.5-.6c.7-.3,1.3-.5,1.8-.7,1.9-.7,3.7-1.2,5.2-1.6h0a24.58,24.58,0,0,1,.2,2.8c.3,4.9.9,12.3,7.6,17.1a21.1,21.1,0,0,0,32.8-13.4c1.5-8.2-3.3-13.9-6.5-17.6-.6-.7-1.2-1.4-1.7-2.1.1-.1.3-.1.5-.2s.2-.1.3-.1c.8-.3,2.2-.7,4.6-1.6l14.4-4.6,38.3,48.4C302.1,233.5,284.9,253.9,264.7,269.3Z"/><path class="cls-1" d="M185.2,0C83.1,0,0,83.1,0,185.2S83.1,370.4,185.2,370.4s185.2-83.1,185.2-185.2S287.3,0,185.2,0Zm0,350.4C94.1,350.4,20,276.3,20,185.2S94.1,20,185.2,20,350.4,94.1,350.4,185.2,276.3,350.4,185.2,350.4Z"/></svg>