<svg id="Layer_1" data-name="Layer 1" xmlns="http://www.w3.org/2000/svg" viewBox="0 0 370.4 370.4"><defs><style>.cls-1{fill:#fff;}</style></defs><title>cl_crop</title><path class="cls-1" d="M185.2,0C83.1,0,0,83.1,0,185.2S83.1,370.4,185.2,370.4s185.2-83.1,185.2-185.2S287.3,0,185.2,0Zm0,350.4C94.1,350.4,20,276.3,20,185.2S94.1,20,185.2,20,350.4,94.1,350.4,185.2,276.3,350.4,185.2,350.4Z"/><path class="cls-1" d="M287.4,115.6a6.11,6.11,0,0,0-6,0l-5.2,3.1-26.7-7-1.2-1.9V95.3a6,6,0,0,0-9-5.2l-7.4,4.4-20.6-5.4a5.56,5.56,0,0,0-.7-4.5,6.11,6.11,0,0,0-6.6-2.8V67.1a6,6,0,0,0-9-5.2l-4.5,2.6-21.3-5.6a6.15,6.15,0,0,0-.8-3.9,6,6,0,0,0-8.2-2.1L86.2,97c-.1.1-.3.2-.4.3-3.1,2.2-6.5,6.7-5.7,12h0V249.2c0,3.2,1.9,9.3,14.9,13.9a23.58,23.58,0,0,0,8.2,1.4c8.5,0,16.7-3.9,21.2-6.4v19.2c0,3.2,1.9,9.3,14.9,13.9a24.33,24.33,0,0,0,8.2,1.4,37.51,37.51,0,0,0,13.9-3,33.63,33.63,0,0,0,5-2.3v15.5c0,3.2,1.9,9.3,14.9,13.9a24.33,24.33,0,0,0,8.2,1.4,37.51,37.51,0,0,0,13.9-3,60.15,60.15,0,0,0,10.2-5.2l73.8-43.7a6,6,0,0,0,2.9-5.2V120.8A5.71,5.71,0,0,0,287.4,115.6ZM185.5,165.2h0c-4.7-1.7-6.4-3-7-3.6a2.65,2.65,0,0,0,.5-.6l64.5-38.4,18.2,4.8-54.2,32.1c-.1.1-.2.1-.3.2C203.8,161.9,192.5,167.8,185.5,165.2Zm-42.1-25.6h0c-4.7-1.7-6.4-3-7-3.6a2.65,2.65,0,0,0,.5-.6l62.3-37.1,18.2,4.8-52,30.8c-.1.1-.2.1-.3.2C161.7,136.3,150.5,142.3,143.4,139.6ZM92.7,107.2l65.2-38.8,18.2,4.8-54.9,32.5c-.1.1-.2.1-.3.2-3.4,2.3-14.7,8.2-21.7,5.6h-.1c-4.6-1.6-6.3-3-6.9-3.6A1.79,1.79,0,0,1,92.7,107.2Zm6.4,144.6h0c-4.2-1.5-6.3-2.9-7-3.7V121.6a30.5,30.5,0,0,0,2.9,1.1,23.58,23.58,0,0,0,8.2,1.4,31.68,31.68,0,0,0,5.3-.5V251.7C105.2,252.6,101.8,252.8,99.1,251.8Zm21.7-5.6c-.1.1-.2.1-.3.2V119.7a66.12,66.12,0,0,0,6.9-3.8l64.7-38.3v11l-61.6,36.7c-.1.1-.3.2-.4.3-3.1,2.2-6.5,6.7-5.7,12h0V244.1l-3.3,1.9ZM143.4,280h0c-4.2-1.5-6.3-2.9-7-3.7V149.7a30.5,30.5,0,0,0,2.9,1.1,23.58,23.58,0,0,0,8.2,1.4,31.68,31.68,0,0,0,5.3-.5V279.8C149.5,280.7,146.1,281,143.4,280Zm22-5.8-.3.2c-.1.1-.2.1-.3.2V147.9a51,51,0,0,0,6.9-3.8l64.7-38.3v7.1l-63.8,38c-.1.1-.3.2-.4.3-3.1,2.2-6.5,6.7-5.7,12V273.7Zm20.1,31.4c0-.1-.1-.1,0,0-4.2-1.5-6.3-2.9-7.1-3.7V175.3a30.5,30.5,0,0,0,2.9,1.1,25.2,25.2,0,0,0,13.5.9V305.4C191.6,306.3,188.2,306.6,185.5,305.6Zm92.9-47.8-71,42c-.1.1-.2.1-.3.2s-.2.1-.3.2V173.5a54.3,54.3,0,0,0,6.9-3.8l64.7-38.3Z"/><path class="cls-1" d="M191.3,295.7h0a11.91,11.91,0,0,1-4.7-.8,22,22,0,0,1-4.1-1.8,2.51,2.51,0,1,0-2.4,4.4,41.5,41.5,0,0,0,4.7,2,18.1,18.1,0,0,0,6.3,1.1h.1a2.48,2.48,0,0,0,2.5-2.5A2.31,2.31,0,0,0,191.3,295.7Z"/><path class="cls-1" d="M180.2,290.2a41.5,41.5,0,0,0,4.7,2,18.1,18.1,0,0,0,6.3,1.1h.1a2.5,2.5,0,0,0,0-5h0a11.91,11.91,0,0,1-4.7-.8,22,22,0,0,1-4.1-1.8,2.59,2.59,0,0,0-3.4,1A2.72,2.72,0,0,0,180.2,290.2Z"/><path class="cls-1" d="M144.6,155.5c-4.3,0-7.8,4.2-7.8,9.3s3.5,9.3,7.8,9.3,7.8-4.2,7.8-9.3S148.9,155.5,144.6,155.5Zm0,14.7c-2.1,0-3.8-2.4-3.8-5.3s1.8-5.3,3.8-5.3,3.8,2.4,3.8,5.3S146.6,170.2,144.6,170.2Z"/><path class="cls-1" d="M99.2,156.9a2.48,2.48,0,0,0-2.5,2.5v64.1a2.5,2.5,0,0,0,5,0V159.4A2.54,2.54,0,0,0,99.2,156.9Z"/></svg>