<svg id="Layer_1" data-name="Layer 1" xmlns="http://www.w3.org/2000/svg" viewBox="0 0 370.5 370.5"><defs><style>.cls-1{fill:#fff;}</style></defs><title>pt_crop</title><path class="cls-1" d="M185.2,0C83.1,0,0,83.1,0,185.2A185.45,185.45,0,0,0,181.2,370.4c1.3,0,2.6.1,4,.1h2.3a189.48,189.48,0,0,0,30.2-2.8h.1c33-5.3,64-20.3,89.8-43.4a185.72,185.72,0,0,0,44.1-57.8,183,183,0,0,0,18.5-72.6h0l.1-1.5c0-.9.1-1.7.1-2.6,0-1.5.1-2.9.1-4.4C370.4,83.1,287.3,0,185.2,0ZM350.3,189.1a17.7,17.7,0,0,1-.1,2.3l-.1,1.4a164.19,164.19,0,0,1-56,116.4c-23,20.6-50.6,33.9-79.7,38.6h-.3a161.6,161.6,0,0,1-27.1,2.5h-5.5A165.47,165.47,0,0,1,19.8,185.1C19.8,94,93.9,19.9,185,19.9S350.4,94.1,350.4,185.2C350.4,186.5,350.4,187.8,350.3,189.1Z"/><path class="cls-1" d="M289.5,261.2H80.6a3,3,0,0,0-3,3v5.2a3,3,0,0,0,3,3H289.5a3,3,0,0,0,3-3v-5.2A3,3,0,0,0,289.5,261.2Z"/><path class="cls-1" d="M120.8,183.8a3,3,0,0,0-3,3V245a3,3,0,0,0,3,3h5.3a3,3,0,0,0,3-3V186.8a3,3,0,0,0-3-3Z"/><path class="cls-1" d="M154.4,157.4a3,3,0,0,0-3,3V245a3,3,0,0,0,3,3h5.2a3,3,0,0,0,3-3V160.4a3,3,0,0,0-3-3Z"/><path class="cls-1" d="M186,157.4a3,3,0,0,0-3,3V245a3,3,0,0,0,3,3h5a3,3,0,0,0,3-3V160.4a3,3,0,0,0-3-3Z"/><path class="cls-1" d="M218.7,147.3a3,3,0,0,0-3,3V245a3,3,0,0,0,3,3h5.1a3,3,0,0,0,3-3V150.3a3,3,0,0,0-3-3Z"/><path class="cls-1" d="M250.3,126a3,3,0,0,0-3,3V244.9a3,3,0,0,0,3,3h4.9a3,3,0,0,0,3-3V129a3,3,0,0,0-3-3Z"/><path class="cls-1" d="M124.9,179.5A14.08,14.08,0,0,0,139,165.4a14.34,14.34,0,0,0-2.2-7.6l6.5-7.7a15,15,0,0,0,4.7.8,14.32,14.32,0,0,0,12.8-7.9l15,1.2a15.44,15.44,0,0,0,1.7,3.4c.1.1.1.2.2.3a1.76,1.76,0,0,0,.4.5,14.05,14.05,0,0,0,25.2-7,9.15,9.15,0,0,0,.1-1.7,10.87,10.87,0,0,0-.1-1.8L244,115.4a14.09,14.09,0,0,0,8.8,3.1,14.42,14.42,0,0,0,7.9-2.4,14.11,14.11,0,0,0,4.5-18.4,14.1,14.1,0,0,0-26.5,6.7,8.6,8.6,0,0,0,.1,1.6L198,128.5a14.32,14.32,0,0,0-8.7-3,14.1,14.1,0,0,0-12.7,8l-15-1.2a13.94,13.94,0,0,0-5.8-7.3,5.58,5.58,0,0,0-.8-.5h-.1a14.37,14.37,0,0,0-6.8-1.8A14.08,14.08,0,0,0,134,136.8a14.34,14.34,0,0,0,1.4,6.1l-7.4,8.7a15.26,15.26,0,0,0-3-.3,14.1,14.1,0,0,0-.1,28.2Zm127.9-78.1a3,3,0,0,1,3,3,3,3,0,1,1-6,0A3,3,0,0,1,252.8,101.4Zm-124.9,64a3,3,0,0,1-3,3,3,3,0,0,1,0-6A3,3,0,0,1,127.9,165.4Zm20.2-31.6a3,3,0,0,1,3,3,3,3,0,1,1-3-3Zm41,9.1a3,3,0,0,1-3-3,3,3,0,0,1,6,0A3,3,0,0,1,189.1,142.9Z"/></svg>