<?xml version="1.0" encoding="utf-8"?>
<!-- Generator: Adobe Illustrator 22.1.0, SVG Export Plug-In . SVG Version: 6.00 Build 0)  -->
<svg version="1.1" id="Layer_1" xmlns="http://www.w3.org/2000/svg" xmlns:xlink="http://www.w3.org/1999/xlink" x="0px" y="0px"
	 viewBox="0 0 650 225" style="enable-background:new 0 0 650 225;" xml:space="preserve">
<style type="text/css">
	.st0{fill:#FFFFFF;}
	.st1{enable-background:new    ;}
</style>
<g>
	<g>
		<g>
			<path id="SHAPE_x5F_3_3_" class="st0" d="M286.4,52.2c2.9-3.4,14-14.5,17.5-16.9c1.1,0,2.6,0.1,3.9,0.3l48.1,53.7
				c-1.7,9.2-7.3,19.1-18.6,29.4C369.3,83,326.4,53.4,286.4,52.2L286.4,52.2z M357.7,91.3c-1.4,4.3-3.4,8.7-6.2,13.5
				c3-4,5.4-8,7.6-11.9L357.7,91.3z M307.7,35.6c19.1,2.6,53.3,24.6,48.1,53.7L307.7,35.6L307.7,35.6z M359.2,92.9
				c24.6-45.4-8.5-74.5-30.9-73.9c-6.6,0.1-10.2,3.9-17,10c24.5,2.3,59.4,23.9,46.6,62.3L359.2,92.9z"/>
			<path class="st0" d="M183.4,80.3c0,5.9,5.9,6.9,10.3,8.2c6.2,1.7,10.6,5.7,10.6,12.5c0,7.2-5.9,12.6-13,12.6h-12v-3.9h2.1h9.9
				c4.7,0,8.7-3.9,8.7-8.6c0-5.9-4.9-7.9-9.7-9.2c-6-1.9-11-4-11-11.3c0-6.9,5.4-11.6,12-11.6h13v3.9h-4h-9
				C187,72.7,183.4,75.9,183.4,80.3z"/>
			<path class="st0" d="M208.3,91.3c0-12.6,10.3-22.5,22.8-22.5c12.3,0,22.8,9.9,22.8,22.3s-10.6,22.3-22.8,22.3
				C219.1,113.4,208.3,103.7,208.3,91.3z M212.8,91.3c0,10,8.5,18.2,18.5,18.2c10.2,0,18.5-8.2,18.5-18.3s-8.3-18.5-18.5-18.5
				C220.9,72.7,212.8,81.2,212.8,91.3z"/>
			<path class="st0" d="M286,86.6c0-8.3-3.4-13.8-11.9-13.8c-7.4,0-12.5,5.4-12.5,13.8v26.8h-4.4V69.7h4.3v5.9h0.1
				c2.7-4.6,7.3-6.6,12.9-6.6c8.3,0,15.8,4.9,15.8,17v27.4h-4.4V86.6H286z"/>
			<path class="st0" d="M294.1,91.3c0-12.6,10.3-22.5,22.8-22.5c12.3,0,22.8,9.9,22.8,22.3s-10.6,22.3-22.8,22.3
				C304.9,113.4,294.1,103.7,294.1,91.3z M298.6,91.3c0,10,8.5,18.2,18.5,18.2c10.2,0,18.5-8.2,18.5-18.3s-8.3-18.5-18.5-18.5
				C306.7,72.7,298.6,81.2,298.6,91.3z"/>
			<path class="st0" d="M374.3,80.3c0,5.9,5.9,6.9,10.3,8.2c6.2,1.7,10.6,5.7,10.6,12.5c0,7.2-5.9,12.6-13,12.6h-12v-3.9h2.1h9.9
				c4.7,0,8.7-3.9,8.7-8.6c0-5.9-4.9-7.9-9.7-9.2c-6-1.9-11-4-11-11.3c0-6.9,5.4-11.6,12-11.6h13v3.9h-4h-9
				C377.8,72.7,374.3,75.9,374.3,80.3z"/>
			<path class="st0" d="M401,69h4.4v44.5H401V69z"/>
			<path class="st0" d="M466.2,86.8c0-8.5-2.7-13.9-11-13.9c-7.4,0-11.9,5.4-11.9,13.9v26.8h-4.4V86.8c0-8.5-2.7-13.9-11.2-13.9
				c-7.4,0-11.9,5.4-11.9,13.9v26.8h-4.4V69.7h4.4v5.7h0.1c3.2-5.4,8.6-6.4,12.3-6.4c7,0,11.5,3.6,13,8.6h0.1
				c2.1-4.9,6.2-8.6,13.9-8.6c11.2,0,15.5,7.7,15.5,17.5v27.1h-4.4V86.8H466.2z"/>
		</g>
		<g class="st1">
			<path class="st0" d="M11.4,143.4H3v-1.5h18.5v1.5h-8.3v24h-1.8V143.4z"/>
			<path class="st0" d="M24,140.4h1.8v12h0.1c0.5-1,1.4-2,2.5-2.6c1.1-0.6,2.3-1.1,3.7-1.1c1.7,0,6.3,0.9,6.3,7.7v11h-1.8v-10.8
				c0-3.3-1.3-6.3-5-6.3c-2.6,0-4.7,1.9-5.5,4.1c-0.2,0.6-0.2,1.1-0.2,1.8v11.1H24V140.4z"/>
			<path class="st0" d="M44.6,158.1c0,5.8,3.2,8.1,6.9,8.1c2.7,0,4-0.5,5-1l0.5,1.4c-0.7,0.4-2.5,1.2-5.7,1.2
				c-5.2,0-8.5-3.8-8.5-9.1c0-6.1,3.5-9.9,8.2-9.9c6,0,7.1,5.6,7.1,8.2c0,0.5,0,0.8-0.1,1.1H44.6z M56.2,156.7c0-2.5-1-6.4-5.4-6.4
				c-4,0-5.7,3.6-6.1,6.4H56.2z"/>
			<path class="st0" d="M83,154.7H72.8v11.2h11.4v1.5H71v-25.6h12.6v1.5H72.8v9.8H83V154.7z"/>
			<path class="st0" d="M100,163.1c0,1.4,0,2.9,0.3,4.3h-1.7l-0.3-2.6h-0.1c-0.9,1.4-2.9,3-5.8,3c-3.7,0-5.3-2.6-5.3-5
				c0-4.2,3.7-6.8,11.1-6.7v-0.5c0-1.8-0.3-5.4-4.7-5.3c-1.6,0-3.3,0.4-4.6,1.4l-0.6-1.3c1.7-1.1,3.7-1.6,5.3-1.6
				c5.3,0,6.3,3.9,6.3,7.2V163.1z M98.2,157.7c-4-0.1-9.2,0.5-9.2,4.9c0,2.6,1.7,3.8,3.6,3.8c3,0,4.8-1.9,5.4-3.6
				c0.2-0.4,0.2-0.8,0.2-1.1V157.7z"/>
			<path class="st0" d="M105.2,165c1,0.6,2.5,1.3,4.1,1.3c2.9,0,4.2-1.6,4.2-3.5c0-2-1.2-3.1-3.8-4.1c-3-1.1-4.6-2.8-4.6-5
				c0-2.7,2.1-4.9,5.6-4.9c1.7,0,3.1,0.5,4,1.1l-0.7,1.5c-0.6-0.5-1.8-1.1-3.6-1.1c-2.3,0-3.5,1.5-3.5,3.1c0,1.9,1.3,2.7,3.8,3.7
				c3,1.2,4.7,2.7,4.7,5.4c0,3.1-2.4,5.2-6.1,5.2c-1.7,0-3.4-0.5-4.6-1.3L105.2,165z"/>
			<path class="st0" d="M120.9,145.6c-0.8,0-1.4-0.7-1.4-1.6c0-0.8,0.6-1.6,1.5-1.6s1.4,0.7,1.4,1.6
				C122.4,144.8,121.9,145.6,120.9,145.6L120.9,145.6z M120.1,167.4v-18.2h1.8v18.2H120.1z"/>
			<path class="st0" d="M128.3,158.1c0,5.8,3.2,8.1,6.9,8.1c2.7,0,4-0.5,5-1l0.5,1.4c-0.7,0.4-2.5,1.2-5.7,1.2
				c-5.2,0-8.5-3.8-8.5-9.1c0-6.1,3.5-9.9,8.2-9.9c6,0,7.1,5.6,7.1,8.2c0,0.5,0,0.8-0.1,1.1H128.3z M139.9,156.7
				c0-2.5-1-6.4-5.4-6.4c-4,0-5.7,3.6-6.1,6.4H139.9z"/>
			<path class="st0" d="M145.6,165c1,0.6,2.5,1.3,4.1,1.3c2.9,0,4.2-1.6,4.2-3.5c0-2-1.2-3.1-3.8-4.1c-3-1.1-4.6-2.8-4.6-5
				c0-2.7,2.1-4.9,5.6-4.9c1.7,0,3.1,0.5,4,1.1l-0.7,1.5c-0.6-0.5-1.8-1.1-3.6-1.1c-2.3,0-3.5,1.5-3.5,3.1c0,1.9,1.3,2.7,3.8,3.7
				c3,1.2,4.7,2.7,4.7,5.4c0,3.1-2.4,5.2-6.1,5.2c-1.7,0-3.4-0.5-4.6-1.3L145.6,165z"/>
			<path class="st0" d="M163,145.2v4h5.2v1.5H163v11.8c0,2.3,0.7,3.8,2.7,3.8c0.9,0,1.6-0.1,2.1-0.3l0.2,1.4
				c-0.6,0.2-1.4,0.4-2.5,0.4c-1.3,0-2.4-0.4-3.1-1.3c-0.8-0.9-1.1-2.5-1.1-4.4v-11.5h-3.1v-1.5h3.1v-3.3L163,145.2z"/>
			<path class="st0" d="M183.5,167.4l-6.8-25.6h1.9l3.7,14.4c0.8,3.3,1.6,6.4,2.1,8.8h0.1c0.4-2.4,1.3-5.4,2.4-8.8l4.2-14.4h1.7
				l3.8,14.3c0.8,3.1,1.7,6.3,2.1,8.9h0.1c0.6-2.8,1.4-5.5,2.3-8.8l4.2-14.4h1.9l-7.7,25.6h-1.7l-3.8-14.7c-1-3.8-1.6-6.3-2-8.6
				h-0.1c-0.4,2.4-1.1,4.9-2.3,8.6l-4.4,14.8H183.5z"/>
			<path class="st0" d="M220.6,163.1c0,1.4,0,2.9,0.3,4.3h-1.7l-0.3-2.6h-0.1c-0.9,1.4-2.9,3-5.8,3c-3.7,0-5.3-2.6-5.3-5
				c0-4.2,3.7-6.8,11.1-6.7v-0.5c0-1.8-0.3-5.4-4.7-5.3c-1.6,0-3.3,0.4-4.6,1.4l-0.6-1.3c1.7-1.1,3.7-1.6,5.3-1.6
				c5.3,0,6.3,3.9,6.3,7.2V163.1z M218.8,157.7c-4-0.1-9.2,0.5-9.2,4.9c0,2.6,1.7,3.8,3.6,3.8c3,0,4.8-1.9,5.4-3.6
				c0.2-0.4,0.2-0.8,0.2-1.1V157.7z"/>
			<path class="st0" d="M225.6,149.2l4.8,11.9c0.5,1.3,1,2.8,1.3,3.9h0.1c0.4-1.1,0.8-2.5,1.4-4l4.4-11.8h1.9l-5.5,13.6
				c-2.2,5.7-3.8,9-6.1,11.1c-1.4,1.2-2.8,1.7-3.2,1.9l-0.6-1.5c0.9-0.3,2.1-1,3.2-2c0.9-0.9,2.1-2.4,3-4.6c0.2-0.4,0.2-0.6,0.2-0.8
				c0-0.2-0.1-0.4-0.2-0.8l-6.8-16.9H225.6z"/>
			<path class="st0" d="M253.8,145.2v4h5.2v1.5h-5.2v11.8c0,2.3,0.7,3.8,2.7,3.8c0.9,0,1.6-0.1,2.1-0.3l0.2,1.4
				c-0.6,0.2-1.4,0.4-2.5,0.4c-1.3,0-2.4-0.4-3.1-1.3c-0.8-0.9-1.1-2.5-1.1-4.4v-11.5h-3.1v-1.5h3.1v-3.3L253.8,145.2z"/>
			<path class="st0" d="M269.6,167.8c-4.7,0-8.3-3.7-8.3-9.4c0-6.2,4.1-9.7,8.6-9.7c5,0,8.5,3.8,8.5,9.4
				C278.3,164.9,273.7,167.8,269.6,167.8L269.6,167.8z M269.7,166.3c3.8,0,6.8-3.4,6.8-8.1c0-3.3-1.9-7.9-6.7-7.9
				c-4.7,0-6.8,4.1-6.8,8C263.1,162.9,266,166.3,269.7,166.3L269.7,166.3z"/>
			<path class="st0" d="M291.3,141.9h1.8v24h11.4v1.5h-13.2V141.9z"/>
			<path class="st0" d="M307.9,158.1c0,5.8,3.2,8.1,6.9,8.1c2.7,0,4-0.5,5-1l0.5,1.4c-0.7,0.4-2.5,1.2-5.7,1.2
				c-5.2,0-8.5-3.8-8.5-9.1c0-6.1,3.5-9.9,8.2-9.9c6,0,7.1,5.6,7.1,8.2c0,0.5,0,0.8-0.1,1.1H307.9z M319.5,156.7
				c0-2.5-1-6.4-5.4-6.4c-4,0-5.7,3.6-6.1,6.4H319.5z"/>
			<path class="st0" d="M337.4,163.1c0,1.4,0,2.9,0.3,4.3H336l-0.3-2.6h-0.1c-0.9,1.4-2.9,3-5.8,3c-3.7,0-5.3-2.6-5.3-5
				c0-4.2,3.7-6.8,11.1-6.7v-0.5c0-1.8-0.3-5.4-4.7-5.3c-1.6,0-3.3,0.4-4.6,1.4l-0.6-1.3c1.7-1.1,3.7-1.6,5.3-1.6
				c5.3,0,6.3,3.9,6.3,7.2V163.1z M335.5,157.7c-4-0.1-9.2,0.5-9.2,4.9c0,2.6,1.7,3.8,3.6,3.8c3,0,4.8-1.9,5.4-3.6
				c0.2-0.4,0.2-0.8,0.2-1.1V157.7z"/>
			<path class="st0" d="M343.2,154.7c0-1.8,0-3.7-0.2-5.5h1.7l0.1,3.7h0.1c0.8-2.3,2.7-4.1,5.2-4.1c0.3,0,0.5,0,0.8,0.1v1.7
				c-0.3,0-0.5,0-0.9,0c-2.5,0-4.3,2.2-4.8,5.1c-0.1,0.5-0.2,1.1-0.2,1.7v10.1h-1.8V154.7z"/>
			<path class="st0" d="M354.7,153.6c0-1.7,0-2.9-0.2-4.4h1.7l0.1,3.3h0.1c1-2,3.3-3.7,6.3-3.7c1.7,0,6.4,0.9,6.4,7.7v10.9h-1.8
				v-10.8c0-3.3-1.3-6.3-5-6.3c-2.5,0-4.7,1.8-5.5,4.2c-0.1,0.4-0.2,1-0.2,1.6v11.3h-1.8V153.6z"/>
			<path class="st0" d="M385.2,141.9v15.4c0,6.5,3,9,6.8,9c4.2,0,7.2-2.7,7.2-9v-15.4h1.8v15.3c0,7.9-4.2,10.7-9.1,10.7
				c-4.5,0-8.5-2.6-8.5-10.4v-15.6H385.2z"/>
			<path class="st0" d="M407.1,140.4h1.8v27h-1.8V140.4z"/>
			<path class="st0" d="M417.6,145.2v4h5.2v1.5h-5.2v11.8c0,2.3,0.7,3.8,2.7,3.8c0.9,0,1.6-0.1,2.1-0.3l0.2,1.4
				c-0.6,0.2-1.4,0.4-2.5,0.4c-1.3,0-2.4-0.4-3.1-1.3c-0.8-0.9-1.1-2.5-1.1-4.4v-11.5h-3.1v-1.5h3.1v-3.3L417.6,145.2z"/>
			<path class="st0" d="M426.8,154.7c0-1.8,0-3.7-0.2-5.5h1.7l0.1,3.7h0.1c0.8-2.3,2.7-4.1,5.2-4.1c0.3,0,0.5,0,0.8,0.1v1.7
				c-0.3,0-0.5,0-0.9,0c-2.5,0-4.3,2.2-4.8,5.1c-0.1,0.5-0.2,1.1-0.2,1.7v10.1h-1.8V154.7z"/>
			<path class="st0" d="M449.4,163.1c0,1.4,0,2.9,0.3,4.3H448l-0.3-2.6h-0.1c-0.9,1.4-2.9,3-5.8,3c-3.7,0-5.3-2.6-5.3-5
				c0-4.2,3.7-6.8,11.1-6.7v-0.5c0-1.8-0.3-5.4-4.7-5.3c-1.6,0-3.3,0.4-4.6,1.4l-0.6-1.3c1.7-1.1,3.7-1.6,5.3-1.6
				c5.3,0,6.3,3.9,6.3,7.2V163.1z M447.6,157.7c-4-0.1-9.2,0.5-9.2,4.9c0,2.6,1.7,3.8,3.6,3.8c3,0,4.8-1.9,5.4-3.6
				c0.2-0.4,0.2-0.8,0.2-1.1V157.7z"/>
			<path class="st0" d="M454.5,165c1,0.6,2.5,1.3,4.1,1.3c2.9,0,4.2-1.6,4.2-3.5c0-2-1.2-3.1-3.8-4.1c-3-1.1-4.6-2.8-4.6-5
				c0-2.7,2.1-4.9,5.6-4.9c1.7,0,3.1,0.5,4,1.1l-0.7,1.5c-0.6-0.5-1.8-1.1-3.6-1.1c-2.3,0-3.5,1.5-3.5,3.1c0,1.9,1.3,2.7,3.8,3.7
				c3,1.2,4.7,2.7,4.7,5.4c0,3.1-2.4,5.2-6.1,5.2c-1.7,0-3.4-0.5-4.6-1.3L454.5,165z"/>
			<path class="st0" d="M476.2,167.8c-4.7,0-8.3-3.7-8.3-9.4c0-6.2,4.1-9.7,8.6-9.7c5,0,8.5,3.8,8.5,9.4
				C485,164.9,480.3,167.8,476.2,167.8L476.2,167.8z M476.3,166.3c3.8,0,6.8-3.4,6.8-8.1c0-3.3-1.9-7.9-6.7-7.9
				c-4.7,0-6.8,4.1-6.8,8C469.7,162.9,472.6,166.3,476.3,166.3L476.3,166.3z"/>
			<path class="st0" d="M489.6,153.6c0-1.7,0-2.9-0.2-4.4h1.7l0.1,3.3h0.1c1-2,3.3-3.7,6.3-3.7c1.7,0,6.4,0.9,6.4,7.7v10.9h-1.8
				v-10.8c0-3.3-1.3-6.3-5-6.3c-2.5,0-4.7,1.8-5.5,4.2c-0.1,0.4-0.2,1-0.2,1.6v11.3h-1.8V153.6z"/>
			<path class="st0" d="M516.7,167.8c-4.7,0-8.3-3.7-8.3-9.4c0-6.2,4.1-9.7,8.6-9.7c5,0,8.5,3.8,8.5,9.4
				C525.5,164.9,520.8,167.8,516.7,167.8L516.7,167.8z M516.9,166.3c3.8,0,6.8-3.4,6.8-8.1c0-3.3-1.9-7.9-6.7-7.9
				c-4.7,0-6.8,4.1-6.8,8C510.2,162.9,513.1,166.3,516.9,166.3L516.9,166.3z"/>
			<path class="st0" d="M544.6,164.8c0,4.7-1,7-2.5,8.4c-1.7,1.6-4.1,2.2-6.2,2.2c-2.1,0-4.4-0.5-5.8-1.6l0.6-1.4
				c1.3,0.8,3.1,1.5,5.4,1.5c3.8,0,6.6-2,6.6-7.4v-2.6h-0.1c-0.9,1.9-3.1,3.5-6.3,3.5c-4.6,0-7.8-4-7.8-9c0-6.3,4.2-9.7,8.2-9.7
				c3.6,0,5.4,2,6.1,3.5h0.1l0.1-3.1h1.7c-0.1,1.4-0.2,2.8-0.2,4.7V164.8z M542.8,156.2c0-0.7,0-1.3-0.2-1.8
				c-0.8-2.2-2.7-4.1-5.7-4.1c-3.9,0-6.5,3.1-6.5,8c0,4.1,2.2,7.6,6.4,7.6c2.4,0,4.7-1.5,5.7-4.1c0.2-0.6,0.3-1.3,0.3-1.9V156.2z"/>
			<path class="st0" d="M550.4,154.7c0-1.8,0-3.7-0.2-5.5h1.7l0.1,3.7h0.1c0.8-2.3,2.7-4.1,5.2-4.1c0.3,0,0.5,0,0.8,0.1v1.7
				c-0.3,0-0.5,0-0.9,0c-2.5,0-4.3,2.2-4.8,5.1c-0.1,0.5-0.2,1.1-0.2,1.7v10.1h-1.8V154.7z"/>
			<path class="st0" d="M573,163.1c0,1.4,0,2.9,0.3,4.3h-1.7l-0.3-2.6h-0.1c-0.9,1.4-2.9,3-5.8,3c-3.7,0-5.3-2.6-5.3-5
				c0-4.2,3.7-6.8,11.1-6.7v-0.5c0-1.8-0.3-5.4-4.7-5.3c-1.6,0-3.3,0.4-4.6,1.4l-0.6-1.3c1.7-1.1,3.7-1.6,5.3-1.6
				c5.3,0,6.3,3.9,6.3,7.2V163.1z M571.1,157.7c-4-0.1-9.2,0.5-9.2,4.9c0,2.6,1.7,3.8,3.6,3.8c3,0,4.8-1.9,5.4-3.6
				c0.2-0.4,0.2-0.8,0.2-1.1V157.7z"/>
			<path class="st0" d="M578.8,155c0-2.3,0-4.1-0.2-5.8h1.7l0.1,3.5h0.1c1.3-2.4,3.6-3.9,6.8-3.9c4.7,0,7.8,3.9,7.8,9.2
				c0,6.5-3.9,9.8-8.3,9.8c-2.6,0-4.9-1.2-6.2-3.4h-0.1v10.5h-1.8V155z M580.6,160.2c0,0.5,0,1,0.2,1.4c0.8,2.8,3.2,4.6,6,4.6
				c4.2,0,6.6-3.4,6.6-8.2c0-4.1-2.3-7.8-6.4-7.8c-2.7,0-5.2,1.8-6,4.8c-0.1,0.5-0.3,1.1-0.3,1.6V160.2z"/>
			<path class="st0" d="M599.8,140.4h1.8v12h0.1c0.5-1,1.4-2,2.5-2.6c1.1-0.6,2.3-1.1,3.7-1.1c1.7,0,6.3,0.9,6.3,7.7v11h-1.8v-10.8
				c0-3.3-1.3-6.3-5-6.3c-2.6,0-4.7,1.9-5.5,4.1c-0.2,0.6-0.2,1.1-0.2,1.8v11.1h-1.8V140.4z"/>
			<path class="st0" d="M619,149.2l4.8,11.9c0.5,1.3,1,2.8,1.3,3.9h0.1c0.4-1.1,0.8-2.5,1.4-4l4.4-11.8h1.9l-5.5,13.6
				c-2.2,5.7-3.8,9-6.1,11.1c-1.4,1.2-2.8,1.7-3.2,1.9l-0.6-1.5c0.9-0.3,2.1-1,3.2-2c0.9-0.9,2.1-2.4,3-4.6c0.2-0.4,0.2-0.6,0.2-0.8
				c0-0.2-0.1-0.4-0.2-0.8l-6.8-16.9H619z"/>
			<path class="st0" d="M640.9,141.5c3.4,0,6.1,2.7,6.1,6c0,3.5-2.7,6.1-6.1,6.1s-6.2-2.7-6.2-6.1
				C634.7,144.2,637.4,141.5,640.9,141.5L640.9,141.5z M640.8,142.6c-2.7,0-4.8,2.2-4.8,5c0,2.8,2.1,5,4.9,5c2.7,0,4.7-2.2,4.7-5
				C645.6,144.8,643.6,142.6,640.8,142.6L640.8,142.6z M639.8,150.9h-1.2v-6.3c0.6-0.1,1.3-0.2,2.2-0.2c1.1,0,1.6,0.2,2,0.5
				c0.4,0.3,0.6,0.8,0.6,1.4c0,0.8-0.6,1.3-1.2,1.5v0.1c0.5,0.2,0.8,0.7,1,1.6c0.2,0.9,0.3,1.3,0.5,1.6h-1.2
				c-0.2-0.2-0.3-0.8-0.5-1.6c-0.2-0.7-0.6-1-1.4-1h-0.8V150.9z M639.8,147.4h0.8c0.8,0,1.6-0.3,1.6-1c0-0.6-0.4-1.1-1.5-1.1
				c-0.5,0-0.7,0-0.9,0.1V147.4z"/>
		</g>
	</g>
</g>
</svg>
